<svg xmlns="http://www.w3.org/2000/svg" xmlns:xlink="http://www.w3.org/1999/xlink" width="682.766" height="543.391" viewBox="0 0 682.766 543.391">
  <defs>
    <filter id="Ellipse_523" x="204.959" y="69.999" width="357.411" height="357.411" filterUnits="userSpaceOnUse">
      <feOffset dy="3" input="SourceAlpha"/>
      <feGaussianBlur stdDeviation="3" result="blur"/>
      <feFlood flood-opacity="0.161"/>
      <feComposite operator="in" in2="blur"/>
      <feComposite in="SourceGraphic"/>
    </filter>
  </defs>
  <g id="No_Record_Found-_Dark" data-name="No Record Found- Dark" transform="translate(-799 -275)">
    <circle id="Ellipse_520" data-name="Ellipse 520" cx="18" cy="18" r="18" transform="translate(799 363)" fill="#cbe6ff"/>
    <g id="Ellipse_525" data-name="Ellipse 525" transform="translate(1417 609)" fill="none" stroke="#cbe6ff" stroke-width="2">
      <circle cx="18" cy="18" r="18" stroke="none"/>
      <circle cx="18" cy="18" r="17" fill="none"/>
    </g>
    <circle id="Ellipse_521" data-name="Ellipse 521" cx="8" cy="8" r="8" transform="translate(876 335)" fill="#cbe6ff"/>
    <g id="Ellipse_526" data-name="Ellipse 526" transform="translate(1371 573)" fill="none" stroke="#cbe6ff" stroke-width="2">
      <circle cx="8" cy="8" r="8" stroke="none"/>
      <circle cx="8" cy="8" r="7" fill="none"/>
    </g>
    <circle id="Ellipse_522" data-name="Ellipse 522" cx="8" cy="8" r="8" transform="translate(835 275)" fill="#cbe6ff"/>
    <g id="Ellipse_527" data-name="Ellipse 527" transform="translate(1417 524)" fill="none" stroke="#cbe6ff" stroke-width="2">
      <circle cx="8" cy="8" r="8" stroke="none"/>
      <circle cx="8" cy="8" r="7" fill="none"/>
    </g>
    <g id="Group_4228" data-name="Group 4228">
      <g id="Union_24" data-name="Union 24" transform="translate(-20354 -10330)" fill="#cbe6ff">
        <path d="M 21571 10918.998046875 L 21269.998046875 10918.998046875 C 21264.732421875 10918.998046875 21259.625 10917.966796875 21254.818359375 10915.93359375 C 21250.173828125 10913.9697265625 21246.00390625 10911.1572265625 21242.421875 10907.5751953125 C 21238.83984375 10903.9931640625 21236.02734375 10899.822265625 21234.0625 10895.1787109375 C 21232.029296875 10890.37109375 21230.998046875 10885.263671875 21230.998046875 10879.9990234375 L 21230.998046875 10726 C 21230.998046875 10722.140625 21234.138671875 10719 21237.998046875 10719 L 21477.001953125 10719 L 21478.001953125 10719 L 21478.001953125 10718 L 21478.001953125 10689 C 21478.001953125 10685.140625 21481.142578125 10682 21485.001953125 10682 L 21603 10682 C 21606.859375 10682 21610 10685.140625 21610 10689 L 21610 10742.9970703125 L 21610 10879.9990234375 C 21610 10885.263671875 21608.96875 10890.37109375 21606.935546875 10895.1787109375 C 21604.970703125 10899.822265625 21602.158203125 10903.9931640625 21598.576171875 10907.5751953125 C 21594.994140625 10911.1572265625 21590.82421875 10913.9697265625 21586.1796875 10915.93359375 C 21581.373046875 10917.966796875 21576.265625 10918.998046875 21571 10918.998046875 Z" stroke="none"/>
        <path d="M 21571 10917.998046875 C 21576.130859375 10917.998046875 21581.107421875 10916.9931640625 21585.791015625 10915.0126953125 C 21590.314453125 10913.0986328125 21594.37890625 10910.3583984375 21597.869140625 10906.8681640625 C 21601.359375 10903.3779296875 21604.099609375 10899.3134765625 21606.013671875 10894.7890625 C 21607.99609375 10890.10546875 21609 10885.1298828125 21609 10879.9990234375 L 21609 10689 C 21609 10685.69140625 21606.30859375 10683 21603 10683 L 21485.001953125 10683 C 21481.693359375 10683 21479.001953125 10685.69140625 21479.001953125 10689 L 21479.001953125 10720 L 21237.998046875 10720 C 21234.689453125 10720 21231.998046875 10722.69140625 21231.998046875 10726 L 21231.998046875 10879.9990234375 C 21231.998046875 10885.1298828125 21233.001953125 10890.10546875 21234.984375 10894.7890625 C 21236.8984375 10899.3134765625 21239.638671875 10903.3779296875 21243.12890625 10906.8681640625 C 21246.619140625 10910.3583984375 21250.68359375 10913.0986328125 21255.20703125 10915.0126953125 C 21259.890625 10916.9931640625 21264.8671875 10917.998046875 21269.998046875 10917.998046875 L 21571 10917.998046875 M 21571 10919.998046875 L 21269.998046875 10919.998046875 C 21247.908203125 10919.998046875 21229.998046875 10902.0888671875 21229.998046875 10879.9990234375 L 21229.998046875 10726 C 21229.998046875 10721.5791015625 21233.583984375 10718 21237.998046875 10718 L 21477.001953125 10718 L 21477.001953125 10689 C 21477.001953125 10684.5791015625 21480.58203125 10681 21485.001953125 10681 L 21603 10681 C 21607.419921875 10681 21611 10684.5791015625 21611 10689 L 21611 10879.9990234375 C 21611 10902.0888671875 21593.08984375 10919.998046875 21571 10919.998046875 Z" stroke="none" fill="#0082fb"/>
      </g>
      <g id="Rectangle_2962" data-name="Rectangle 2962" transform="translate(828 428)" fill="#cbe6ff" stroke="#0082fb" stroke-width="2">
        <path d="M8,0H373a8,8,0,0,1,8,8V162a40,40,0,0,1-40,40H40A40,40,0,0,1,0,162V8A8,8,0,0,1,8,0Z" stroke="none"/>
        <path d="M8,1H373a7,7,0,0,1,7,7V162a39,39,0,0,1-39,39H40A39,39,0,0,1,1,162V8A7,7,0,0,1,8,1Z" fill="none"/>
      </g>
      <rect id="Rectangle_2964" data-name="Rectangle 2964" width="101" height="4" rx="2" transform="translate(1139 368)" fill="#0082fb"/>
    </g>
    <g id="Group_4230" data-name="Group 4230" transform="translate(-249.227 1198.82) rotate(-45)">
      <g id="Union_25" data-name="Union 25" transform="translate(-19775 -10042.004)" fill="#fff">
        <path d="M 21267.998046875 10957.998046875 C 21263.00390625 10957.998046875 21258.158203125 10957.01953125 21253.599609375 10955.0908203125 C 21249.193359375 10953.2275390625 21245.236328125 10950.5595703125 21241.837890625 10947.1611328125 C 21238.44140625 10943.7626953125 21235.7734375 10939.806640625 21233.908203125 10935.4013671875 C 21231.98046875 10930.8408203125 21231.001953125 10925.99609375 21231.001953125 10921.001953125 L 21231.001953125 10735.998046875 L 21254.998046875 10735.998046875 L 21255.998046875 10735.998046875 L 21255.998046875 10734.998046875 L 21255.998046875 10682.0029296875 L 21280.001953125 10682.0029296875 L 21280.001953125 10734.998046875 L 21280.001953125 10735.998046875 L 21281.001953125 10735.998046875 L 21305 10735.998046875 L 21305 10921.001953125 C 21305 10925.99609375 21304.021484375 10930.8408203125 21302.091796875 10935.4013671875 C 21300.228515625 10939.806640625 21297.560546875 10943.7626953125 21294.162109375 10947.1611328125 C 21290.763671875 10950.5595703125 21286.806640625 10953.2275390625 21282.400390625 10955.0908203125 C 21277.837890625 10957.01953125 21272.994140625 10957.998046875 21267.998046875 10957.998046875 Z" stroke="none"/>
        <path d="M 21267.998046875 10956.998046875 C 21272.859375 10956.998046875 21277.572265625 10956.046875 21282.009765625 10954.169921875 C 21286.296875 10952.3564453125 21290.1484375 10949.7607421875 21293.455078125 10946.4541015625 C 21296.76171875 10943.1474609375 21299.357421875 10939.2978515625 21301.171875 10935.01171875 C 21303.048828125 10930.5751953125 21304 10925.861328125 21304 10921.001953125 L 21304 10736.998046875 L 21279.001953125 10736.998046875 L 21279.001953125 10683.0029296875 L 21256.998046875 10683.0029296875 L 21256.998046875 10736.998046875 L 21232.001953125 10736.998046875 L 21232.001953125 10921.001953125 C 21232.001953125 10925.861328125 21232.953125 10930.5751953125 21234.830078125 10935.01171875 C 21236.642578125 10939.2978515625 21239.23828125 10943.1474609375 21242.544921875 10946.4541015625 C 21245.8515625 10949.7607421875 21249.703125 10952.3564453125 21253.98828125 10954.169921875 C 21258.42578125 10956.046875 21263.138671875 10956.998046875 21267.998046875 10956.998046875 M 21267.998046875 10958.998046875 C 21247.015625 10958.998046875 21230.001953125 10941.984375 21230.001953125 10921.001953125 L 21230.001953125 10734.998046875 L 21254.998046875 10734.998046875 L 21254.998046875 10681.0029296875 L 21281.001953125 10681.0029296875 L 21281.001953125 10734.998046875 L 21306 10734.998046875 L 21306 10921.001953125 C 21306 10941.984375 21288.984375 10958.998046875 21267.998046875 10958.998046875 Z" stroke="none" fill="#0082fb"/>
      </g>
      <rect id="Rectangle_2968" data-name="Rectangle 2968" width="50" height="2" transform="translate(1468 719)" fill="#0082fb"/>
      <rect id="Rectangle_2969" data-name="Rectangle 2969" width="50" height="2" transform="translate(1468 877)" fill="#0082fb"/>
      <rect id="Rectangle_2970" data-name="Rectangle 2970" width="100" height="2" transform="translate(1494 749) rotate(90)" fill="#0082fb"/>
      <rect id="Rectangle_2972" data-name="Rectangle 2972" width="100" height="2" transform="translate(1476 749) rotate(90)" fill="#0082fb"/>
      <rect id="Rectangle_2971" data-name="Rectangle 2971" width="100" height="2" transform="translate(1512 749) rotate(90)" fill="#0082fb"/>
      <g id="Group_4229" data-name="Group 4229" transform="translate(313 13.999)">
        <g transform="matrix(0.71, 0.71, -0.71, 0.71, 1081.45, 73.97)" filter="url(#Ellipse_523)">
          <g id="Ellipse_523-2" data-name="Ellipse 523" transform="translate(213.96 245.7) rotate(-45)" fill="#fff" stroke="#0082fb" stroke-width="2">
            <circle cx="120" cy="120" r="120" stroke="none"/>
            <circle cx="120" cy="120" r="119" fill="none"/>
          </g>
        </g>
        <g id="Ellipse_524" data-name="Ellipse 524" transform="translate(1079 419.001)" fill="#cbe6ff" stroke="#0082fb" stroke-width="2">
          <circle cx="100" cy="100" r="100" stroke="none"/>
          <circle cx="100" cy="100" r="99" fill="none"/>
        </g>
      </g>
    </g>
    <g id="Rectangle_2965" data-name="Rectangle 2965" transform="translate(1124 458)" fill="#fff" stroke="#0082fb" stroke-width="1">
      <rect width="126" height="123" stroke="none"/>
      <rect x="0.5" y="0.5" width="125" height="122" fill="none"/>
    </g>
    <text id="_" data-name="?" transform="translate(1179 543)" fill="#cbe6ff" font-size="72" font-family="Kollektif"><tspan x="0" y="0">?</tspan></text>
    <text id="No_Record_Found_" data-name="No Record Found !!" transform="translate(828 798)" fill="#0082fb" font-size="60" font-family="Kollektif"><tspan x="0" y="0">No Record Found !!</tspan></text>
  </g>
</svg>
