<svg xmlns="http://www.w3.org/2000/svg" xmlns:xlink="http://www.w3.org/1999/xlink" width="353.002" height="421" viewBox="0 0 353.002 421">
  <defs>
    <filter id="Subtraction_4" x="0" y="0" width="353.002" height="421" filterUnits="userSpaceOnUse">
      <feOffset dx="4" dy="4" input="SourceAlpha"/>
      <feGaussianBlur stdDeviation="4" result="blur"/>
      <feFlood flood-opacity="0.161"/>
      <feComposite operator="in" in2="blur"/>
      <feComposite in="SourceGraphic"/>
    </filter>
  </defs>
  <g transform="matrix(1, 0, 0, 1, 0, 0)" filter="url(#Subtraction_4)">
    <g id="Subtraction_4-2" data-name="Subtraction 4" transform="translate(10676 3292)" fill="#eaf9ff">
      <path d="M -10354.9990234375 -2887.5 L -10651.9990234375 -2887.5 C -10656.1396484375 -2887.5 -10660.033203125 -2889.112548828125 -10662.9609375 -2892.040283203125 C -10665.888671875 -2894.96728515625 -10667.5009765625 -2898.859375 -10667.5009765625 -2902.999755859375 L -10667.5009765625 -3268.000732421875 C -10667.5009765625 -3272.14111328125 -10665.888671875 -3276.033203125 -10662.9609375 -3278.960205078125 C -10660.033203125 -3281.887939453125 -10656.1396484375 -3283.50048828125 -10651.9990234375 -3283.50048828125 L -10551.5400390625 -3283.50048828125 L -10545.4306640625 -3272.704833984375 L -10545.287109375 -3272.451171875 L -10544.9951171875 -3272.451171875 L -10459.26171875 -3272.451171875 L -10458.943359375 -3272.451171875 L -10458.80859375 -3272.739501953125 L -10453.779296875 -3283.50048828125 L -10354.9990234375 -3283.50048828125 C -10350.859375 -3283.50048828125 -10346.966796875 -3281.887939453125 -10344.0390625 -3278.960205078125 C -10341.111328125 -3276.032958984375 -10339.4990234375 -3272.140869140625 -10339.4990234375 -3268.000732421875 L -10339.4990234375 -2902.999755859375 C -10339.4990234375 -2898.85986328125 -10341.111328125 -2894.967529296875 -10344.0390625 -2892.040283203125 C -10346.966796875 -2889.112548828125 -10350.859375 -2887.5 -10354.9990234375 -2887.5 Z" stroke="none"/>
      <path d="M -10354.9990234375 -2888 C -10350.9931640625 -2888 -10347.2265625 -2889.560546875 -10344.392578125 -2892.393798828125 C -10341.5595703125 -2895.226806640625 -10339.9990234375 -2898.993408203125 -10339.9990234375 -2902.999755859375 L -10339.9990234375 -3268.000732421875 C -10339.9990234375 -3272.007080078125 -10341.5595703125 -3275.773681640625 -10344.392578125 -3278.6064453125 C -10347.2265625 -3281.43994140625 -10350.9931640625 -3283.00048828125 -10354.9990234375 -3283.00048828125 L -10453.4609375 -3283.00048828125 L -10458.625 -3271.951171875 L -10545.578125 -3271.951171875 L -10551.8310546875 -3283.00048828125 L -10651.9990234375 -3283.00048828125 C -10656.005859375 -3283.00048828125 -10659.7734375 -3281.43994140625 -10662.607421875 -3278.6064453125 C -10665.4404296875 -3275.77392578125 -10667.0009765625 -3272.00732421875 -10667.0009765625 -3268.000732421875 L -10667.0009765625 -2902.999755859375 C -10667.0009765625 -2898.9931640625 -10665.4404296875 -2895.2265625 -10662.607421875 -2892.393798828125 C -10659.7734375 -2889.560546875 -10656.005859375 -2888 -10651.9990234375 -2888 L -10354.9990234375 -2888 M -10354.9990234375 -2887 L -10651.9990234375 -2887 C -10656.2734375 -2887 -10660.2919921875 -2888.66455078125 -10663.314453125 -2891.686767578125 C -10666.3369140625 -2894.70849609375 -10668.0009765625 -2898.72607421875 -10668.0009765625 -2902.999755859375 L -10668.0009765625 -3268.000732421875 C -10668.0009765625 -3272.2744140625 -10666.3369140625 -3276.2919921875 -10663.314453125 -3279.313720703125 C -10660.2919921875 -3282.3359375 -10656.2734375 -3284.00048828125 -10651.9990234375 -3284.00048828125 L -10551.248046875 -3284.00048828125 L -10544.9951171875 -3272.951171875 L -10459.26171875 -3272.951171875 L -10454.09765625 -3284.00048828125 L -10354.9990234375 -3284.00048828125 C -10350.7265625 -3284.00048828125 -10346.7080078125 -3282.3359375 -10343.685546875 -3279.313720703125 C -10340.6630859375 -3276.291748046875 -10338.9990234375 -3272.274169921875 -10338.9990234375 -3268.000732421875 L -10338.9990234375 -2902.999755859375 C -10338.9990234375 -2898.726318359375 -10340.6630859375 -2894.708740234375 -10343.685546875 -2891.686767578125 C -10346.7080078125 -2888.66455078125 -10350.7265625 -2887 -10354.9990234375 -2887 Z" stroke="none" fill="#01aae9"/>
    </g>
  </g>
</svg>
